<?xml version="1.0" encoding="UTF-8" standalone="no"?>
<!-- Created with Inkscape (http://www.inkscape.org/) -->

<svg
   xmlns:dc="http://purl.org/dc/elements/1.1/"
   xmlns:cc="http://creativecommons.org/ns#"
   xmlns:rdf="http://www.w3.org/1999/02/22-rdf-syntax-ns#"
   xmlns:svg="http://www.w3.org/2000/svg"
   xmlns="http://www.w3.org/2000/svg"
   xmlns:xlink="http://www.w3.org/1999/xlink"
   xmlns:sodipodi="http://sodipodi.sourceforge.net/DTD/sodipodi-0.dtd"
   xmlns:inkscape="http://www.inkscape.org/namespaces/inkscape"
   width="199.5032mm"
   height="172.33333mm"
   viewBox="0 0 199.5032 172.33333"
   version="1.1"
   id="svg3049"
   inkscape:version="0.92.3 (2405546, 2018-03-11)"
   sodipodi:docname="ink_H.svg">
  <defs
     id="defs3043">
    <linearGradient
       inkscape:collect="always"
       xlink:href="#linearGradient9082"
       id="linearGradient9088"
       gradientUnits="userSpaceOnUse"
       x1="-154.20238"
       y1="127.66617"
       x2="-132.61433"
       y2="127.66617"
       gradientTransform="rotate(-90,-152.22314,133.23504)" />
    <linearGradient
       inkscape:collect="always"
       id="linearGradient9082">
      <stop
         style="stop-color:#ffff69;stop-opacity:1"
         offset="0"
         id="stop9078" />
      <stop
         style="stop-color:#787800;stop-opacity:1"
         offset="1"
         id="stop9080" />
    </linearGradient>
  </defs>
  <sodipodi:namedview
     id="base"
     pagecolor="#ffffff"
     bordercolor="#666666"
     borderopacity="1.0"
     inkscape:pageopacity="0.0"
     inkscape:pageshadow="2"
     inkscape:zoom="0.35"
     inkscape:cx="-1101.4993"
     inkscape:cy="268.52643"
     inkscape:document-units="mm"
     inkscape:current-layer="layer1"
     showgrid="false"
     inkscape:window-width="4096"
     inkscape:window-height="2035"
     inkscape:window-x="7155"
     inkscape:window-y="-13"
     inkscape:window-maximized="1"
     fit-margin-top="0"
     fit-margin-left="0"
     fit-margin-right="0"
     fit-margin-bottom="0" />
  <metadata
     id="metadata3046">
    <rdf:RDF>
      <cc:Work
         rdf:about="">
        <dc:format>image/svg+xml</dc:format>
        <dc:type
           rdf:resource="http://purl.org/dc/dcmitype/StillImage" />
        <dc:title></dc:title>
      </cc:Work>
    </rdf:RDF>
  </metadata>
  <g
     inkscape:label="レイヤー 1"
     inkscape:groupmode="layer"
     id="layer1"
     transform="translate(236.37643,-47.547621)">
    <path
       style="fill:none;stroke:#000000;stroke-width:3;stroke-linecap:butt;stroke-linejoin:round;stroke-miterlimit:4;stroke-dasharray:none;stroke-opacity:1"
       d="M -80.706561,49.047621 Z"
       id="path3079"
       inkscape:connector-curvature="0" />
    <path
       style="fill:#ff964d;fill-opacity:1;stroke:#000000;stroke-width:3;stroke-linecap:butt;stroke-linejoin:round;stroke-miterlimit:4;stroke-dasharray:none;stroke-opacity:1"
       d="m -80.706561,218.38095 c 0,-84.66666 0,-84.66666 0,-84.66666 h -42.333329 v -31.75 h 42.333329 V 49.047621 h 42.33334 V 218.38095 Z"
       id="path68"
       inkscape:connector-curvature="0" />
    <path
       style="fill:none;stroke:#000000;stroke-width:3;stroke-linecap:butt;stroke-linejoin:round;stroke-miterlimit:4;stroke-dasharray:none;stroke-opacity:1"
       d="m -123.03989,101.96414 c 0,52.91641 0,52.91641 0,52.91641 h 42.333329 v -52.91641 z"
       id="path70"
       inkscape:connector-curvature="0" />
    <path
       style="fill:#ffff69;fill-opacity:1;stroke:#000000;stroke-width:3;stroke-linecap:butt;stroke-linejoin:round;stroke-miterlimit:4;stroke-dasharray:none;stroke-opacity:1"
       d="m -207.70655,49.047621 c 0,84.666659 0,169.333329 0,169.333329 h 42.33333 v -52.91667 h 42.33333 v -31.75 h -42.33333 V 49.047621 Z"
       id="path72"
       inkscape:connector-curvature="0" />
    <path
       style="fill:none;stroke:#000000;stroke-width:3;stroke-linecap:butt;stroke-linejoin:round;stroke-miterlimit:4;stroke-dasharray:none;stroke-opacity:1"
       d="m -165.37322,112.54748 c 0,52.91647 0,52.91647 0,52.91647 h 42.33333 v -52.91647 h -42.33333"
       id="path76"
       inkscape:connector-curvature="0" />
    <path
       style="fill:#ffff69;fill-opacity:1;stroke:#000000;stroke-width:3;stroke-linecap:butt;stroke-linejoin:round;stroke-miterlimit:4;stroke-dasharray:none;stroke-opacity:1"
       d="m -123.03989,133.71428 v 21.16667 h 42.333329 v -21.16667 h -42.333329 v 0 0"
       id="path888"
       inkscape:connector-curvature="0" />
    <path
       style="fill:#ff964d;fill-opacity:1;stroke:#000000;stroke-width:3;stroke-linecap:butt;stroke-linejoin:round;stroke-miterlimit:4;stroke-dasharray:none;stroke-opacity:1"
       d="m -165.37322,112.54762 c 0,21.16666 0,21.16666 0,21.16666 h 42.33333 v -21.16666 h -42.33333"
       id="path890"
       inkscape:connector-curvature="0" />
    <path
       style="fill:#ff964d;fill-opacity:1;stroke:#000000;stroke-width:3;stroke-linecap:butt;stroke-linejoin:round;stroke-miterlimit:4;stroke-dasharray:none;stroke-opacity:1"
       d="m -123.03989,101.96429 v 31.74999 h 42.333329 v -31.74999 h -42.333329"
       id="path892"
       inkscape:connector-curvature="0" />
    <path
       style="fill:none;stroke:#000000;stroke-width:0.26458332px;stroke-linecap:butt;stroke-linejoin:miter;stroke-opacity:1"
       d="m -165.37322,133.71428 c 84.666659,0 84.666659,0 84.666659,0 v 0 0"
       id="path894"
       inkscape:connector-curvature="0" />
    <path
       style="fill:none;stroke:#000000;stroke-width:0.26458332px;stroke-linecap:butt;stroke-linejoin:miter;stroke-opacity:1"
       d="m -165.37322,49.047621 c -0.20318,0.60362 -0.46966,1.18951 -0.60956,1.81085 -0.0656,0.29151 0,0.59762 0,0.89643 0,0.29881 0,0.59762 0,0.89643 0,1.29484 0,2.58968 0,3.88452 0,3.2869 0,6.5738 0,9.8607 0,10.159521 0,20.319032 0,30.47855 0,3.486099 0,6.972209 0,10.458319 0,0.79683 0,1.59365 0,2.39047 0,0.0996 0,0.19921 0,0.29881 0,0.0996 0.0996,0.29881 0,0.29881 -0.0996,0 0,-0.39841 0,-0.29881 0,0.19921 0,0.39842 0,0.59762 0,0.0996 -0.0445,0.20972 0,0.29881 0.063,0.12599 0.23582,0.17282 0.29881,0.29881 0.0445,0.0891 -0.0227,0.20182 0,0.29881 0.0817,0.34948 0.20717,0.68725 0.31075,1.03087"
       id="path966"
       inkscape:connector-curvature="0" />
    <path
       style="fill:none;stroke:#000000;stroke-width:0.26458332px;stroke-linecap:butt;stroke-linejoin:miter;stroke-opacity:1"
       d="m -165.37322,112.54762 v 21.16666"
       id="path968"
       inkscape:connector-curvature="0" />
    <path
       style="fill:none;stroke:#000000;stroke-width:2.76586342;stroke-linecap:butt;stroke-linejoin:round;stroke-miterlimit:4;stroke-dasharray:none;stroke-opacity:1"
       d="m -165.37322,55.397621 c 0,71.966659 0,71.966659 0,71.966659 v 0"
       id="path972"
       inkscape:connector-curvature="0" />
    <path
       sodipodi:nodetypes="ccccc"
       inkscape:connector-curvature="0"
       d="m -80.70657,133.71428 -69.50419,-18.58804 -84.66666,-10e-6 69.5042,18.58805 z"
       style="fill:url(#linearGradient9088);fill-opacity:1;fill-rule:evenodd;stroke:#000000;stroke-width:3;stroke-linecap:butt;stroke-linejoin:round;stroke-miterlimit:4;stroke-dasharray:none;stroke-opacity:1"
       id="path9086" />
  </g>
</svg>
